<svg xmlns="http://www.w3.org/2000/svg" viewBox="0 0 24 24" role="img" aria-label="Apple">
  <path fill="currentColor" d="M17.05 20.28c-.98.95-2.05 1.88-3.51 1.9-1.46.02-1.93-.86-3.63-.86-1.69 0-2.22.84-3.62.88-1.45.04-2.56-1.47-3.54-2.42C2.45 17.25 1.04 12.45 3.67 8.71c1.31-1.89 3.28-3.02 5.25-3.02 1.55 0 2.51.86 3.79.86 1.26 0 2.03-.86 3.81-.86 1.36.02 2.83.73 3.9 2.01-3.43 1.88-2.87 6.78.57 8.17-.63 1.5-1.45 2.98-2.54 4.43zM12.03 7.25c-.15-2.23 1.66-4.07 3.74-4.25.29 2.58-2.34 4.5-3.74 4.25z"/>
</svg>
